<?xml version="1.0" encoding="utf-8"?>
<!-- Generator: Adobe Illustrator 20.1.0, SVG Export Plug-In . SVG Version: 6.00 Build 0)  -->
<svg version="1.1" id="Layer_1" xmlns="http://www.w3.org/2000/svg" xmlns:xlink="http://www.w3.org/1999/xlink" x="0px" y="0px"
	 viewBox="0 0 454 55.4" style="enable-background:new 0 0 454 55.4;" xml:space="preserve">
<style type="text/css">
	.st0{fill:#6D6E71;}
	.st1{fill:#FFFFFF;}
</style>
<path class="st0" d="M-3778.7,1672.2h6.2c-1.5,1.5-2.9,2.9-4.5,4.3c-0.2,0.2-0.5,0.5-0.7,0.7h-1V1672.2z"/>
<path class="st0" d="M-3778.7,1677.2h1c-41.7,39-96.1,60.5-153.3,60.5s-111.6-21.5-153.3-60.5h1v-5l0.5-0.5c0.4,0.4,0.8,0.8,1.2,1.2
	c40.9,38.6,94.4,59.8,150.6,59.8c56.2,0,109.7-21.3,150.6-59.8c0.4-0.4,0.8-0.8,1.2-1.2l0.5,0.5V1677.2z"/>
<path class="st0" d="M-4083.4,1672.2v5h-1c-0.3-0.2-0.5-0.5-0.7-0.7c-1.5-1.4-3-2.9-4.5-4.3H-4083.4z"/>
<g>
	<path class="st1" d="M-12.7,23.7c0.1,1.3,0.1,2.5,0,3.8c0,0.1,0,0.1,0,0.2c-0.3,4.2-1.4,8.3-3.4,12c-0.1,0.1-0.2,0.3-0.2,0.4
		c-1,1.8-2.3,3.5-3.7,5.1c0,0.1-0.1,0.1-0.2,0.2c-5,5.5-11.8,8.8-19.2,9.4c-7.4,0.6-14.6-1.7-20.4-6.4c-0.1,0-0.1-0.1-0.2-0.1
		c-1.6-1.3-3.1-2.8-4.4-4.5c0,0-0.1-0.1-0.1-0.1c-2.4-3-4.1-6.5-5.1-10.2c0-0.1,0-0.1-0.1-0.2c-0.4-1.7-0.7-3.4-0.9-5.1
		c-0.5-6,1-11.9,3.9-16.9c0.9-1.5,3.1-0.5,2.6,1.1c-0.8,2.7-1.1,5.6-0.9,8.5c0,0.3,0,0.6,0.1,0.8c0,0.1,0,0.1,0,0.2
		c0.4,3.5,1.6,6.8,3.5,9.8c0,0.1,0.1,0.1,0.1,0.2c4.7,7.1,12.8,11.1,21.2,10.4c4.1-0.3,8-1.7,11.4-4c3.3-2.2,5.9-5.3,7.7-8.8
		c0-0.1,0.1-0.2,0.1-0.2c1.6-3.4,2.4-7.1,2.3-10.9c0-0.1,0-0.1,0-0.2c0-0.3,0-0.5,0-0.8c-0.1-1.7-0.4-3.4-0.9-5
		c-0.5-1.6,1.8-2.6,2.6-1.2C-14.4,14.9-13,19.1-12.7,23.7z"/>
	<g>
		<path class="st1" d="M-37.9,5.6l-2.5-4.4c-0.1-0.1-0.2-0.2-0.2-0.3c-0.2-0.2-0.5-0.3-0.9-0.3c-0.2,0-0.4,0.1-0.6,0.1
			c-0.2,0.1-0.4,0.2-0.6,0.5l0,0C-42.9,1.3-43,1.5-43,1.7l-2.3,3.9l-14.6,22.9c-0.1,0.2-0.2,0.5-0.2,0.8c0.1,2.3,3.9,5.5,4.9,6.3
			c1,0.8,2.1,1.2,2.5,0l10.5-30c0.2-0.2,0.4-0.3,0.6-0.3c0.2,0,0.4,0.1,0.6,0.3l10.5,30c0.5,1.1,1.6,0.7,2.5,0
			c1.1-0.9,4.8-4,4.9-6.3c0-0.3,0-0.5-0.2-0.8L-37.9,5.6z"/>
		<path class="st1" d="M-7.1,47.7c-0.7-1.2-1-2.1-1.7-3.6c-0.3-0.7-0.6-1.6-0.8-2.4c-0.1-0.4-0.3-0.8-0.6-1.1c-0.5-0.6-1.3-1-2.1-1
			c-0.8,0-1.7,0.3-2.2,1c-0.3,0.3-0.6,0.7-0.8,1.1c-0.3,0.5-0.6,1-0.9,1.5c-0.6,0.9-1.3,1.8-2.1,2.6c-0.2,0.2-0.3,0.4-0.5,0.5
			c-0.2,0.2-0.4,0.4-0.6,0.6c-0.3,0.3-0.5,0.6-0.7,1c-0.3,0.8-0.4,1.6-0.2,2.4c0.2,0.8,0.6,1.5,1.3,2c0.2,0.1,0.4,0.3,0.7,0.3
			c0.1,0,0.2,0,0.4,0c1.2,0.1,2.5,0,3.7,0c1.2,0,2.6,0,4,0c0.1,0,0,0,0.4,0c0.5,0,1,0.1,1.4-0.1c0.9-0.3,1.6-1.1,1.9-2
			C-6.4,49.6-6.6,48.5-7.1,47.7z"/>
		<path class="st1" d="M-63.5,46.9c-0.2-0.2-0.4-0.4-0.6-0.6c-0.2-0.2-0.4-0.4-0.5-0.5c-0.8-0.8-1.5-1.7-2.1-2.6
			c-0.3-0.5-0.6-1-0.9-1.5c-0.3-0.4-0.5-0.8-0.8-1.1c-0.6-0.6-1.4-1-2.2-1c-0.8,0-1.6,0.4-2.1,1c-0.3,0.3-0.5,0.7-0.6,1.1
			c-0.2,0.8-0.5,1.6-0.8,2.4c-0.7,1.5-1,2.4-1.7,3.6c-0.5,0.9-0.7,1.9-0.4,2.9c0.2,0.9,1,1.7,1.9,2c0.5,0.2,1,0.1,1.4,0.1
			c0.4,0,0.3,0,0.4,0c1.3,0,2.7,0.1,4,0c1.2,0,2.5,0.1,3.7,0c0.1,0,0.2,0,0.4,0c0.2,0,0.5-0.2,0.7-0.3c0.7-0.4,1.1-1.2,1.3-2
			c0.2-0.8,0.1-1.7-0.2-2.4C-63,47.5-63.2,47.2-63.5,46.9z"/>
	</g>
	<g>
		<path class="st1" d="M28.8,35.7h-0.9c-1.1,0-2,0.4-2.8,1.2c-2,2.1-4.8,3.3-7.8,3.3c-6.1,0-11-5-11-11c0-5.9,5-10.7,11-10.7
			c3,0,5.7,1.1,7.8,3.2c0.8,0.8,1.6,1.2,2.8,1.2h0.8c1.1,0,2.1-0.5,2.5-1.4c0.4-0.8,0.2-1.9-0.5-2.7c-3.3-4-8.2-6.3-13.3-6.3
			C7.9,12.4,0,20.1,0,29.2c0,9.4,7.7,17.1,17.3,17.1c5.3,0,10.2-2.4,13.5-6.5c0.7-0.9,0.8-1.9,0.4-2.7
			C30.8,36.2,29.9,35.7,28.8,35.7z"/>
		<path class="st1" d="M53.8,12.3c-9.5,0-17.2,7.5-17.2,16.8c0,9.4,7.7,17.1,17.2,17.1c9.5,0,17.2-7.7,17.2-17.1
			C71,19.9,63.3,12.3,53.8,12.3z M53.8,40.2c-6.2,0-11-4.9-11-11c0-5.9,4.9-10.7,11-10.7s11,4.8,11,10.7
			C64.8,35.3,60,40.2,53.8,40.2z"/>
		<path class="st1" d="M102.9,12.7h-0.4c-1.7,0-2.9,1.1-2.9,2.9v20L84.1,14.2c-0.7-1-1.6-1.5-2.8-1.5H80c-1.7,0-2.9,1.1-2.9,2.9
			v27.5c0,1.7,1.1,2.9,2.9,2.9h0.4c1.7,0,2.9-1.1,2.9-2.9v-20l15.6,21.4c0.7,1,1.6,1.5,2.8,1.5h1.4c1.7,0,2.9-1.1,2.9-2.9V15.6
			C105.8,13.9,104.6,12.7,102.9,12.7z"/>
		<path class="st1" d="M140.5,35.7h-0.9c-1.1,0-2,0.4-2.8,1.2c-2,2.1-4.8,3.3-7.8,3.3c-6.1,0-11-5-11-11c0-5.9,5-10.7,11-10.7
			c3,0,5.7,1.1,7.8,3.2c0.8,0.8,1.6,1.2,2.8,1.2h0.8c1.1,0,2.1-0.5,2.5-1.4c0.4-0.8,0.2-1.9-0.5-2.7c-3.3-4-8.2-6.3-13.3-6.3
			c-9.4,0-17.3,7.7-17.3,16.8c0,9.4,7.7,17.1,17.3,17.1c5.3,0,10.2-2.4,13.5-6.5c0.7-0.9,0.8-1.9,0.4-2.7
			C142.4,36.2,141.5,35.7,140.5,35.7z"/>
		<path class="st1" d="M166.7,33.4c3.7-1.7,5.9-5.3,5.9-9.8c0-6.4-4.6-10.9-11.1-10.9H153c-1.7,0-2.9,1.1-2.9,2.9v27.5
			c0,1.7,1.1,2.9,2.9,2.9h0.4c1.7,0,2.9-1.1,2.9-2.9v-8.6h3.4l7.9,10.1c0.8,0.9,1.7,1.3,2.8,1.3h1c1.2,0,2-0.5,2.5-1.4
			c0.4-0.9,0.2-1.9-0.5-2.7L166.7,33.4z M156.2,18.7h5.3c3,0,4.9,1.9,4.9,4.9s-1.9,4.9-4.9,4.9h-5.3V18.7z"/>
		<path class="st1" d="M197.6,12.7h-14.8c-1.7,0-2.9,1.1-2.9,2.9v27.5c0,1.7,1.1,2.9,2.9,2.9h14.8c1.7,0,2.9-1.1,2.9-2.9v-0.3
			c0-1.7-1.1-2.9-2.9-2.9h-11.6v-9.8h10.8c1.7,0,2.9-1.1,2.9-2.9V27c0-1.7-1.1-2.9-2.9-2.9h-10.8v-5.5h11.6c1.7,0,2.9-1.1,2.9-2.9
			v-0.3C200.5,13.9,199.3,12.7,197.6,12.7z"/>
		<path class="st1" d="M228.7,12.7h-20.8c-1.7,0-2.9,1.1-2.9,2.9v0.3c0,1.7,1.1,2.9,2.9,2.9h7.4v24.4c0,1.7,1.1,2.9,2.9,2.9h0.4
			c1.7,0,2.9-1.1,2.9-2.9V18.7h7.3c1.7,0,2.9-1.1,2.9-2.9v-0.3C231.6,13.9,230.4,12.7,228.7,12.7z"/>
		<path class="st1" d="M254.2,12.7h-14.8c-1.7,0-2.9,1.1-2.9,2.9v27.5c0,1.7,1.1,2.9,2.9,2.9h14.8c1.7,0,2.9-1.1,2.9-2.9v-0.3
			c0-1.7-1.1-2.9-2.9-2.9h-11.6v-9.8h10.8c1.7,0,2.9-1.1,2.9-2.9V27c0-1.7-1.1-2.9-2.9-2.9h-10.8v-5.5h11.6c1.7,0,2.9-1.1,2.9-2.9
			v-0.3C257.1,13.9,255.9,12.7,254.2,12.7z"/>
		<path class="st1" d="M289.9,12.7h-0.4c-1.7,0-2.9,1.1-2.9,2.9v25.7c0,4.1-2.1,6.5-5.9,6.9c-1.6,0.2-2.6,1.3-2.6,2.9v0.4
			c0,1.1,0.5,1.8,0.8,2.1c0.4,0.3,1,0.7,2,0.7c0.1,0,0.1,0,0.2,0c7.2-0.6,11.5-5.5,11.5-13V15.6C292.7,13.9,291.6,12.7,289.9,12.7z"
			/>
		<path class="st1" d="M323.1,12.7h-0.4c-1.7,0-2.9,1.1-2.9,2.9v17.9c0,4.5-2.5,7-7,7c-4.5,0-7-2.5-7-7V15.6c0-1.7-1.1-2.9-2.9-2.9
			h-0.4c-1.7,0-2.9,1.1-2.9,2.9v17.9c0,8.1,5,13.1,13.1,13.1c8,0,13-5,13-13.1V15.6C326,13.9,324.9,12.7,323.1,12.7z"/>
		<path class="st1" d="M359,12.7h-0.4c-1.7,0-2.9,1.1-2.9,2.9v20l-15.6-21.4c-0.7-1-1.6-1.5-2.8-1.5H336c-1.7,0-2.9,1.1-2.9,2.9
			v27.5c0,1.7,1.1,2.9,2.9,2.9h0.4c1.7,0,2.9-1.1,2.9-2.9v-20l15.6,21.4c0.7,1,1.6,1.5,2.8,1.5h1.4c1.7,0,2.9-1.1,2.9-2.9V15.6
			C361.8,13.9,360.7,12.7,359,12.7z"/>
		<path class="st1" d="M397.3,27.7h-0.4c-1.7,0-2.9,1.1-2.9,2.9v5c-2.1,3-5.4,4.7-9.1,4.7c-6.1,0-11-5-11-11c0-5.9,5-10.7,11-10.7
			c3.1,0,6.2,1.3,8.3,3.6c0.8,0.9,1.7,1.2,2.8,1.2h0.5c1.1,0,2-0.5,2.5-1.4c0.4-0.8,0.3-1.8-0.4-2.7c-3.3-4.4-8.2-6.9-13.6-6.9
			c-9.4,0-17.3,7.7-17.3,16.8c0,9.4,7.7,17.1,17.3,17.1c3.3,0,6.4-0.9,9.1-2.6c0.3,1.3,1.3,2.2,2.8,2.2h0.4c1.7,0,2.9-1.1,2.9-2.9
			V30.5C400.1,28.8,399,27.7,397.3,27.7z"/>
		<path class="st1" d="M424.8,40h-11V15.6c0-1.7-1.1-2.9-2.9-2.9h-0.4c-1.7,0-2.9,1.1-2.9,2.9v27.5c0,1.7,1.1,2.9,2.9,2.9h14.3
			c1.7,0,2.9-1.1,2.9-2.9v-0.3C427.7,41.1,426.5,40,424.8,40z"/>
		<path class="st1" d="M451.2,18.7c1.7,0,2.9-1.1,2.9-2.9v-0.3c0-1.7-1.1-2.9-2.9-2.9h-14.8c-1.7,0-2.9,1.1-2.9,2.9v27.5
			c0,1.7,1.1,2.9,2.9,2.9h14.8c1.7,0,2.9-1.1,2.9-2.9v-0.3c0-1.7-1.1-2.9-2.9-2.9h-11.6v-9.8h10.8c1.7,0,2.9-1.1,2.9-2.9V27
			c0-1.7-1.1-2.9-2.9-2.9h-10.8v-5.5H451.2z"/>
	</g>
</g>
</svg>
