<svg xmlns="http://www.w3.org/2000/svg" viewBox="0 0 71.26 55.44"><defs><style>.cls-1{fill:#fff;}</style></defs><title>Asset 2</title><g id="Layer_2" data-name="Layer 2"><g id="Layer_1-2" data-name="Layer 1"><path class="cls-1" d="M65.26,23.59a30.15,30.15,0,0,1,0,3.85c0,.07,0,.14,0,.21a29.22,29.22,0,0,1-3.51,12.29l-.24.44a29.8,29.8,0,0,1-3.74,5.22l-.15.17a29.6,29.6,0,0,1-40.5,3.1L17,48.71a29.6,29.6,0,0,1-4.5-4.59L12.35,44A29.22,29.22,0,0,1,7.17,33.55l-.06-.21a29.64,29.64,0,0,1,3.14-22.52A1.49,1.49,0,0,1,13,12,23.86,23.86,0,0,0,12,20.68c0,.3,0,.58.08.85l0,.18a23.45,23.45,0,0,0,3.59,10l.14.22a23.8,23.8,0,0,0,41.21-2.47l.12-.24a23.77,23.77,0,0,0,2.35-11.14V17.9c0-.27,0-.55,0-.85A23.72,23.72,0,0,0,58.54,12a1.48,1.48,0,0,1,2.69-1.2A29.56,29.56,0,0,1,65.26,23.59Z"/><path class="cls-1" d="M39.5,5.11,36.89.63a1.13,1.13,0,0,0-.25-.3,1.29,1.29,0,0,0-1-.32,1.37,1.37,0,0,0-.61.15,1,1,0,0,0-.58.48h0a2.09,2.09,0,0,0-.26.46l-2.33,4-15,23.42a1.37,1.37,0,0,0-.19.77c.15,2.31,3.94,5.58,5.05,6.45s2.12,1.2,2.59,0L35.12,5.12a.75.75,0,0,1,1.15,0L47,35.78c.47,1.17,1.59.76,2.59,0s4.9-4.14,5.05-6.45a1.37,1.37,0,0,0-.19-.77Z"/><path class="cls-1" d="M70.73,48.12C70,46.91,69.66,46,69,44.49a18.12,18.12,0,0,1-.86-2.41,2.95,2.95,0,0,0-5.06-1.24A12.92,12.92,0,0,0,62.21,42c-.33.47-.58,1-.91,1.52a28.72,28.72,0,0,1-2.15,2.7c-.17.19-.35.37-.53.55s-.41.43-.63.63a2.88,2.88,0,0,0-.7,1,4.07,4.07,0,0,0-.18,2.49,3.28,3.28,0,0,0,1.31,2,1.75,1.75,0,0,0,.68.3l.36,0c1.27.1,2.54,0,3.81,0s2.69,0,4,0l.46,0a4,4,0,0,0,1.47-.11,3,3,0,0,0,1.89-2A4,4,0,0,0,70.73,48.12Z"/><path class="cls-1" d="M13.27,47.38c-.22-.2-.41-.43-.63-.63s-.36-.36-.53-.55A28.71,28.71,0,0,1,10,43.5C9.64,43,9.39,42.45,9.05,42a12.92,12.92,0,0,0-.85-1.14,2.94,2.94,0,0,0-5.06,1.24,18.11,18.11,0,0,1-.86,2.41C1.6,46,1.21,46.91.53,48.12a4,4,0,0,0-.41,3,3,3,0,0,0,1.89,2,4,4,0,0,0,1.47.11l.46,0c1.35,0,2.77.06,4,0s2.54.09,3.81,0l.36,0a1.75,1.75,0,0,0,.68-.3,3.28,3.28,0,0,0,1.31-2A4.07,4.07,0,0,0,14,48.39,2.88,2.88,0,0,0,13.27,47.38Z"/></g></g></svg>