<?xml version="1.0" encoding="utf-8"?>
<!-- Generator: Adobe Illustrator 20.1.0, SVG Export Plug-In . SVG Version: 6.00 Build 0)  -->
<svg version="1.1" id="Layer_1" xmlns="http://www.w3.org/2000/svg" xmlns:xlink="http://www.w3.org/1999/xlink" x="0px" y="0px"
	 viewBox="0 0 533.5 55.4" style="enable-background:new 0 0 533.5 55.4;" xml:space="preserve">
<style type="text/css">
	.st0{fill:#6D6E71;}
	.st1{fill:#FFFFFF;}
	.st2{fill:#FFFFFF;stroke:#FFFFFF;stroke-width:3;stroke-miterlimit:10;}
	.st3{font-family:'Arcon-Rounded-Regular';}
	.st4{font-size:42.2504px;}
	.st5{letter-spacing:4;}
</style>
<path class="st0" d="M-3702.2,1672.2h6.2c-1.5,1.5-2.9,2.9-4.5,4.3c-0.2,0.2-0.5,0.5-0.7,0.7h-1V1672.2z"/>
<path class="st0" d="M-3702.2,1677.2h1c-41.7,39-96.1,60.5-153.3,60.5s-111.6-21.5-153.3-60.5h1v-5l0.5-0.5c0.4,0.4,0.8,0.8,1.2,1.2
	c40.9,38.6,94.4,59.8,150.6,59.8c56.2,0,109.7-21.3,150.6-59.8c0.4-0.4,0.8-0.8,1.2-1.2l0.5,0.5V1677.2z"/>
<path class="st0" d="M-4006.9,1672.2v5h-1c-0.3-0.2-0.5-0.5-0.7-0.7c-1.5-1.4-3-2.9-4.5-4.3H-4006.9z"/>
<g>
	<path class="st1" d="M65.4,23.7c0.1,1.3,0.1,2.5,0,3.8c0,0.1,0,0.1,0,0.2c-0.3,4.2-1.4,8.3-3.4,12c-0.1,0.1-0.2,0.3-0.2,0.4
		c-1,1.8-2.3,3.5-3.7,5.1c0,0.1-0.1,0.1-0.2,0.2c-5,5.5-11.8,8.8-19.2,9.4c-7.4,0.6-14.6-1.7-20.4-6.4c-0.1,0-0.1-0.1-0.2-0.1
		c-1.6-1.3-3.1-2.8-4.4-4.5c0,0-0.1-0.1-0.1-0.1c-2.4-3-4.1-6.5-5.1-10.2c0-0.1,0-0.1-0.1-0.2c-0.4-1.7-0.7-3.4-0.9-5.1
		c-0.5-6,1-11.9,3.9-16.9c0.9-1.5,3.1-0.5,2.6,1.1c-0.8,2.7-1.1,5.6-0.9,8.5c0,0.3,0,0.6,0.1,0.8c0,0.1,0,0.1,0,0.2
		c0.4,3.5,1.6,6.8,3.5,9.8c0,0.1,0.1,0.1,0.1,0.2c4.7,7.1,12.8,11.1,21.2,10.4c4.1-0.3,8-1.7,11.4-4c3.3-2.2,5.9-5.3,7.7-8.8
		c0-0.1,0.1-0.2,0.1-0.2c1.6-3.4,2.4-7.1,2.3-10.9c0-0.1,0-0.1,0-0.2c0-0.3,0-0.5,0-0.8c-0.1-1.7-0.4-3.4-0.9-5
		c-0.5-1.6,1.8-2.6,2.6-1.2C63.7,14.9,65,19.1,65.4,23.7z"/>
	<g>
		<path class="st1" d="M40.2,5.6l-2.5-4.4c-0.1-0.1-0.2-0.2-0.2-0.3c-0.2-0.2-0.5-0.3-0.9-0.3c-0.2,0-0.4,0.1-0.6,0.1
			c-0.2,0.1-0.4,0.2-0.6,0.5l0,0c-0.1,0.1-0.2,0.3-0.3,0.4l-2.3,3.9L18.1,28.5c-0.1,0.2-0.2,0.5-0.2,0.8c0.1,2.3,3.9,5.5,4.9,6.3
			c1,0.8,2.1,1.2,2.5,0l10.5-30c0.2-0.2,0.4-0.3,0.6-0.3c0.2,0,0.4,0.1,0.6,0.3l10.5,30c0.5,1.1,1.6,0.7,2.5,0
			c1.1-0.9,4.8-4,4.9-6.3c0-0.3,0-0.5-0.2-0.8L40.2,5.6z"/>
		<path class="st1" d="M71,47.7c-0.7-1.2-1-2.1-1.7-3.6c-0.3-0.7-0.6-1.6-0.8-2.4c-0.1-0.4-0.3-0.8-0.6-1.1c-0.5-0.6-1.3-1-2.1-1
			c-0.8,0-1.7,0.3-2.2,1c-0.3,0.3-0.6,0.7-0.8,1.1c-0.3,0.5-0.6,1-0.9,1.5c-0.6,0.9-1.3,1.8-2.1,2.6c-0.2,0.2-0.3,0.4-0.5,0.5
			c-0.2,0.2-0.4,0.4-0.6,0.6c-0.3,0.3-0.5,0.6-0.7,1c-0.3,0.8-0.4,1.6-0.2,2.4c0.2,0.8,0.6,1.5,1.3,2c0.2,0.1,0.4,0.3,0.7,0.3
			c0.1,0,0.2,0,0.4,0c1.2,0.1,2.5,0,3.7,0c1.2,0,2.6,0,4,0c0.1,0,0,0,0.4,0c0.5,0,1,0.1,1.4-0.1c0.9-0.3,1.6-1.1,1.9-2
			C71.7,49.6,71.5,48.5,71,47.7z"/>
		<path class="st1" d="M14.5,46.9c-0.2-0.2-0.4-0.4-0.6-0.6c-0.2-0.2-0.4-0.4-0.5-0.5c-0.8-0.8-1.5-1.7-2.1-2.6
			c-0.3-0.5-0.6-1-0.9-1.5c-0.3-0.4-0.5-0.8-0.8-1.1c-0.6-0.6-1.4-1-2.2-1c-0.8,0-1.6,0.4-2.1,1c-0.3,0.3-0.5,0.7-0.6,1.1
			c-0.2,0.8-0.5,1.6-0.8,2.4c-0.7,1.5-1,2.4-1.7,3.6c-0.5,0.9-0.7,1.9-0.4,2.9c0.2,0.9,1,1.7,1.9,2c0.5,0.2,1,0.1,1.4,0.1
			c0.4,0,0.3,0,0.4,0c1.3,0,2.7,0.1,4,0c1.2,0,2.5,0.1,3.7,0c0.1,0,0.2,0,0.4,0c0.2,0,0.5-0.2,0.7-0.3c0.7-0.4,1.1-1.2,1.3-2
			c0.2-0.8,0.1-1.7-0.2-2.4C15.1,47.5,14.8,47.2,14.5,46.9z"/>
	</g>
	<text transform="matrix(1 0 0 1 78.2924 44.4107)" class="st2 st3 st4 st5">concrete jungle</text>
</g>
<path class="st1" d="M64.6,23.7c0.1,1.3,0.1,2.5,0,3.8c0,0.1,0,0.1,0,0.2c-0.3,4.2-1.4,8.3-3.4,12c-0.1,0.1-0.2,0.3-0.2,0.4
	c-1,1.8-2.3,3.5-3.7,5.1c0,0.1-0.1,0.1-0.2,0.2c-5,5.5-11.8,8.8-19.2,9.4c-7.4,0.6-14.6-1.7-20.4-6.4c-0.1,0-0.1-0.1-0.2-0.1
	c-1.6-1.3-3.1-2.8-4.4-4.5c0,0-0.1-0.1-0.1-0.1c-2.4-3-4.1-6.5-5.1-10.2c0-0.1,0-0.1-0.1-0.2c-0.4-1.7-0.7-3.4-0.9-5.1
	c-0.5-6,1-11.9,3.9-16.9c0.9-1.5,3.1-0.5,2.6,1.1c-0.8,2.7-1.1,5.6-0.9,8.5c0,0.3,0,0.6,0.1,0.8c0,0.1,0,0.1,0,0.2
	c0.4,3.5,1.6,6.8,3.5,9.8c0,0.1,0.1,0.1,0.1,0.2c4.7,7.1,12.8,11.1,21.2,10.4c4.1-0.3,8-1.7,11.4-4c3.3-2.2,5.9-5.3,7.7-8.8
	c0-0.1,0.1-0.2,0.1-0.2c1.6-3.4,2.4-7.1,2.3-10.9c0-0.1,0-0.1,0-0.2c0-0.3,0-0.5,0-0.8c-0.1-1.7-0.4-3.4-0.9-5
	c-0.5-1.6,1.8-2.6,2.6-1.2C62.9,14.9,64.3,19.1,64.6,23.7z"/>
<g>
	<path class="st1" d="M39.4,5.6l-2.5-4.4c-0.1-0.1-0.2-0.2-0.2-0.3c-0.2-0.2-0.5-0.3-0.9-0.3c-0.2,0-0.4,0.1-0.6,0.1
		c-0.2,0.1-0.4,0.2-0.6,0.5l0,0c-0.1,0.1-0.2,0.3-0.3,0.4L32,5.6L17.4,28.5c-0.1,0.2-0.2,0.5-0.2,0.8c0.1,2.3,3.9,5.5,4.9,6.3
		c1,0.8,2.1,1.2,2.5,0l10.5-30c0.2-0.2,0.4-0.3,0.6-0.3c0.2,0,0.4,0.1,0.6,0.3l10.5,30c0.5,1.1,1.6,0.7,2.5,0c1.1-0.9,4.8-4,4.9-6.3
		c0-0.3,0-0.5-0.2-0.8L39.4,5.6z"/>
	<path class="st1" d="M70.3,47.7c-0.7-1.2-1-2.1-1.7-3.6c-0.3-0.7-0.6-1.6-0.8-2.4c-0.1-0.4-0.3-0.8-0.6-1.1c-0.5-0.6-1.3-1-2.1-1
		c-0.8,0-1.7,0.3-2.2,1c-0.3,0.3-0.6,0.7-0.8,1.1c-0.3,0.5-0.6,1-0.9,1.5c-0.6,0.9-1.3,1.8-2.1,2.6c-0.2,0.2-0.3,0.4-0.5,0.5
		c-0.2,0.2-0.4,0.4-0.6,0.6c-0.3,0.3-0.5,0.6-0.7,1c-0.3,0.8-0.4,1.6-0.2,2.4c0.2,0.8,0.6,1.5,1.3,2c0.2,0.1,0.4,0.3,0.7,0.3
		c0.1,0,0.2,0,0.4,0c1.2,0.1,2.5,0,3.7,0c1.2,0,2.6,0,4,0c0.1,0,0,0,0.4,0c0.5,0,1,0.1,1.4-0.1c0.9-0.3,1.6-1.1,1.9-2
		C70.9,49.6,70.7,48.5,70.3,47.7z"/>
	<path class="st1" d="M13.8,46.9c-0.2-0.2-0.4-0.4-0.6-0.6c-0.2-0.2-0.4-0.4-0.5-0.5c-0.8-0.8-1.5-1.7-2.1-2.6
		c-0.3-0.5-0.6-1-0.9-1.5c-0.3-0.4-0.5-0.8-0.8-1.1c-0.6-0.6-1.4-1-2.2-1c-0.8,0-1.6,0.4-2.1,1c-0.3,0.3-0.5,0.7-0.6,1.1
		c-0.2,0.8-0.5,1.6-0.8,2.4c-0.7,1.5-1,2.4-1.7,3.6c-0.5,0.9-0.7,1.9-0.4,2.9c0.2,0.9,1,1.7,1.9,2c0.5,0.2,1,0.1,1.4,0.1
		c0.4,0,0.3,0,0.4,0c1.3,0,2.7,0.1,4,0c1.2,0,2.5,0.1,3.7,0c0.1,0,0.2,0,0.4,0c0.2,0,0.5-0.2,0.7-0.3c0.7-0.4,1.1-1.2,1.3-2
		c0.2-0.8,0.1-1.7-0.2-2.4C14.3,47.5,14.1,47.2,13.8,46.9z"/>
</g>
<g>
	<path class="st1" d="M106.1,35.7h-0.9c-1.1,0-2,0.4-2.8,1.2c-2,2.1-4.8,3.3-7.8,3.3c-6.1,0-11-5-11-11c0-5.9,5-10.7,11-10.7
		c3,0,5.7,1.1,7.8,3.2c0.8,0.8,1.6,1.2,2.8,1.2h0.8c1.1,0,2.1-0.5,2.5-1.4c0.4-0.8,0.2-1.9-0.5-2.7c-3.3-4-8.2-6.3-13.3-6.3
		c-9.4,0-17.3,7.7-17.3,16.8c0,9.4,7.7,17.1,17.3,17.1c5.3,0,10.2-2.4,13.5-6.5c0.7-0.9,0.8-1.9,0.4-2.7
		C108.1,36.2,107.2,35.7,106.1,35.7z"/>
	<path class="st1" d="M131.1,12.3c-9.5,0-17.2,7.5-17.2,16.8c0,9.4,7.7,17.1,17.2,17.1c9.5,0,17.2-7.7,17.2-17.1
		C148.3,19.9,140.6,12.3,131.1,12.3z M131.1,40.2c-6.2,0-11-4.9-11-11c0-5.9,4.9-10.7,11-10.7s11,4.8,11,10.7
		C142.1,35.3,137.3,40.2,131.1,40.2z"/>
	<path class="st1" d="M180.3,12.7h-0.4c-1.7,0-2.9,1.1-2.9,2.9v20l-15.6-21.4c-0.7-1-1.6-1.5-2.8-1.5h-1.4c-1.7,0-2.9,1.1-2.9,2.9
		v27.5c0,1.7,1.1,2.9,2.9,2.9h0.4c1.7,0,2.9-1.1,2.9-2.9v-20l15.6,21.4c0.7,1,1.6,1.5,2.8,1.5h1.4c1.7,0,2.9-1.1,2.9-2.9V15.6
		C183.1,13.9,182,12.7,180.3,12.7z"/>
	<path class="st1" d="M217.8,35.7h-0.9c-1.1,0-2,0.4-2.8,1.2c-2,2.1-4.8,3.3-7.8,3.3c-6.1,0-11-5-11-11c0-5.9,5-10.7,11-10.7
		c3,0,5.7,1.1,7.8,3.2c0.8,0.8,1.6,1.2,2.8,1.2h0.8c1.1,0,2.1-0.5,2.5-1.4c0.4-0.8,0.2-1.9-0.5-2.7c-3.3-4-8.2-6.3-13.3-6.3
		c-9.4,0-17.3,7.7-17.3,16.8c0,9.4,7.7,17.1,17.3,17.1c5.3,0,10.2-2.4,13.5-6.5c0.7-0.9,0.8-1.9,0.4-2.7
		C219.7,36.2,218.9,35.7,217.8,35.7z"/>
	<path class="st1" d="M244.1,33.4c3.7-1.7,5.9-5.3,5.9-9.8c0-6.4-4.6-10.9-11.1-10.9h-8.5c-1.7,0-2.9,1.1-2.9,2.9v27.5
		c0,1.7,1.1,2.9,2.9,2.9h0.4c1.7,0,2.9-1.1,2.9-2.9v-8.6h3.4l7.9,10.1c0.8,0.9,1.7,1.3,2.8,1.3h1c1.2,0,2-0.5,2.5-1.4
		c0.4-0.9,0.2-1.9-0.5-2.7L244.1,33.4z M233.6,18.7h5.3c3,0,4.9,1.9,4.9,4.9s-1.9,4.9-4.9,4.9h-5.3V18.7z"/>
	<path class="st1" d="M274.9,12.7h-14.8c-1.7,0-2.9,1.1-2.9,2.9v27.5c0,1.7,1.1,2.9,2.9,2.9h14.8c1.7,0,2.9-1.1,2.9-2.9v-0.3
		c0-1.7-1.1-2.9-2.9-2.9h-11.6v-9.8h10.8c1.7,0,2.9-1.1,2.9-2.9V27c0-1.7-1.1-2.9-2.9-2.9h-10.8v-5.5h11.6c1.7,0,2.9-1.1,2.9-2.9
		v-0.3C277.8,13.9,276.7,12.7,274.9,12.7z"/>
	<path class="st1" d="M306,12.7h-20.8c-1.7,0-2.9,1.1-2.9,2.9v0.3c0,1.7,1.1,2.9,2.9,2.9h7.4v24.4c0,1.7,1.1,2.9,2.9,2.9h0.4
		c1.7,0,2.9-1.1,2.9-2.9V18.7h7.3c1.7,0,2.9-1.1,2.9-2.9v-0.3C308.9,13.9,307.7,12.7,306,12.7z"/>
	<path class="st1" d="M331.6,12.7h-14.8c-1.7,0-2.9,1.1-2.9,2.9v27.5c0,1.7,1.1,2.9,2.9,2.9h14.8c1.7,0,2.9-1.1,2.9-2.9v-0.3
		c0-1.7-1.1-2.9-2.9-2.9H320v-9.8h10.8c1.7,0,2.9-1.1,2.9-2.9V27c0-1.7-1.1-2.9-2.9-2.9H320v-5.5h11.6c1.7,0,2.9-1.1,2.9-2.9v-0.3
		C334.4,13.9,333.3,12.7,331.6,12.7z"/>
	<path class="st1" d="M367.2,12.7h-0.4c-1.7,0-2.9,1.1-2.9,2.9v25.7c0,4.1-2.1,6.5-5.9,6.9c-1.6,0.2-2.6,1.3-2.6,2.9v0.4
		c0,1.1,0.5,1.8,0.8,2.1c0.4,0.3,1,0.7,2,0.7c0.1,0,0.1,0,0.2,0c7.2-0.6,11.5-5.5,11.5-13V15.6C370,13.9,368.9,12.7,367.2,12.7z"/>
	<path class="st1" d="M400.5,12.7h-0.4c-1.7,0-2.9,1.1-2.9,2.9v17.9c0,4.5-2.5,7-7,7c-4.5,0-7-2.5-7-7V15.6c0-1.7-1.1-2.9-2.9-2.9
		H380c-1.7,0-2.9,1.1-2.9,2.9v17.9c0,8.1,5,13.1,13.1,13.1c8,0,13-5,13-13.1V15.6C403.3,13.9,402.2,12.7,400.5,12.7z"/>
	<path class="st1" d="M436.3,12.7h-0.4c-1.7,0-2.9,1.1-2.9,2.9v20l-15.6-21.4c-0.7-1-1.6-1.5-2.8-1.5h-1.4c-1.7,0-2.9,1.1-2.9,2.9
		v27.5c0,1.7,1.1,2.9,2.9,2.9h0.4c1.7,0,2.9-1.1,2.9-2.9v-20l15.6,21.4c0.7,1,1.6,1.5,2.8,1.5h1.4c1.7,0,2.9-1.1,2.9-2.9V15.6
		C439.2,13.9,438,12.7,436.3,12.7z"/>
	<path class="st1" d="M474.6,27.7h-0.4c-1.7,0-2.9,1.1-2.9,2.9v5c-2.1,3-5.4,4.7-9.1,4.7c-6.1,0-11-5-11-11c0-5.9,5-10.7,11-10.7
		c3.1,0,6.2,1.3,8.3,3.6c0.8,0.9,1.7,1.2,2.8,1.2h0.5c1.1,0,2-0.5,2.5-1.4c0.4-0.8,0.3-1.8-0.4-2.7c-3.3-4.4-8.2-6.9-13.6-6.9
		c-9.4,0-17.3,7.7-17.3,16.8c0,9.4,7.7,17.1,17.3,17.1c3.3,0,6.4-0.9,9.1-2.6c0.3,1.3,1.3,2.2,2.8,2.2h0.4c1.7,0,2.9-1.1,2.9-2.9
		V30.5C477.4,28.8,476.3,27.7,474.6,27.7z"/>
	<path class="st1" d="M502.1,40h-11V15.6c0-1.7-1.1-2.9-2.9-2.9h-0.4c-1.7,0-2.9,1.1-2.9,2.9v27.5c0,1.7,1.1,2.9,2.9,2.9h14.3
		c1.7,0,2.9-1.1,2.9-2.9v-0.3C505,41.1,503.8,40,502.1,40z"/>
	<path class="st1" d="M528.5,18.7c1.7,0,2.9-1.1,2.9-2.9v-0.3c0-1.7-1.1-2.9-2.9-2.9h-14.8c-1.7,0-2.9,1.1-2.9,2.9v27.5
		c0,1.7,1.1,2.9,2.9,2.9h14.8c1.7,0,2.9-1.1,2.9-2.9v-0.3c0-1.7-1.1-2.9-2.9-2.9h-11.6v-9.8h10.8c1.7,0,2.9-1.1,2.9-2.9V27
		c0-1.7-1.1-2.9-2.9-2.9h-10.8v-5.5H528.5z"/>
</g>
</svg>
